HIERARCHY
ROOT joint_Root
{
	OFFSET 0.0 0.0 0.0
	CHANNELS 6 Xposition Yposition Zposition Zrotation Xrotation Yrotation 
	JOINT Hips
	{
		OFFSET -17.1583 93.1646 452.98
		CHANNELS 6 Xposition Yposition Zposition Zrotation Xrotation Yrotation 
		JOINT Spine
		{
			OFFSET 15.7357 0.0 0.0
			CHANNELS 6 Xposition Yposition Zposition Zrotation Xrotation Yrotation 
			JOINT Chest
			{
				OFFSET 8.98455 -0.406207 0.0
				CHANNELS 6 Xposition Yposition Zposition Zrotation Xrotation Yrotation 
				JOINT Neck
				{
					OFFSET 16.3773 0.0 0.0
					CHANNELS 6 Xposition Yposition Zposition Zrotation Xrotation Yrotation 
					JOINT Head
					{
						OFFSET 6.45672 0.0 0.0
						CHANNELS 6 Xposition Yposition Zposition Zrotation Xrotation Yrotation 
						End Site
						{
							OFFSET 0.0 0.0 0.0
						}
					}
				}
				JOINT Shoulder_L
				{
					OFFSET 12.9942 -0.242716 4.98039
					CHANNELS 6 Xposition Yposition Zposition Zrotation Xrotation Yrotation 
					JOINT UpperArm_L
					{
						OFFSET 5.34809 0.0 0.0
						CHANNELS 6 Xposition Yposition Zposition Zrotation Xrotation Yrotation 
						JOINT LowerArm_L
						{
							OFFSET 24.3286 1.87007e-05 0.0
							CHANNELS 6 Xposition Yposition Zposition Zrotation Xrotation Yrotation 
							JOINT Hand_L
							{
								OFFSET 22.2916 0.0 0.0
								CHANNELS 6 Xposition Yposition Zposition Zrotation Xrotation Yrotation 
								End Site
								{
									OFFSET 0.0 0.0 0.0
								}
							}
						}
					}
				}
				JOINT Shoulder_R
				{
					OFFSET 12.9945 -0.242716 -4.98039
					CHANNELS 6 Xposition Yposition Zposition Zrotation Xrotation Yrotation 
					JOINT UpperArm_R
					{
						OFFSET -5.34813 0.0 0.0
						CHANNELS 6 Xposition Yposition Zposition Zrotation Xrotation Yrotation 
						JOINT LowerArm_R
						{
							OFFSET -24.3289 0.000322201 0.0
							CHANNELS 6 Xposition Yposition Zposition Zrotation Xrotation Yrotation 
							JOINT Hand_R
							{
								OFFSET -22.2915 -0.000108084 0.0
								CHANNELS 6 Xposition Yposition Zposition Zrotation Xrotation Yrotation 
								End Site
								{
									OFFSET 0.0 0.0 0.0
								}
							}
						}
					}
				}
			}
		}
		JOINT UpperLeg_L
		{
			OFFSET -2.19248 -6.46944 0.0
			CHANNELS 6 Xposition Yposition Zposition Zrotation Xrotation Yrotation 
			JOINT LowerLeg_L
			{
				OFFSET 39.0811 0.0 -1.23785e-05
				CHANNELS 6 Xposition Yposition Zposition Zrotation Xrotation Yrotation 
				JOINT Foot_L
				{
					OFFSET 40.9854 0.0 -1.26872e-05
					CHANNELS 6 Xposition Yposition Zposition Zrotation Xrotation Yrotation 
					JOINT Toes_L
					{
						OFFSET 11.7543 0.0 0.0
						CHANNELS 6 Xposition Yposition Zposition Zrotation Xrotation Yrotation 
						End Site
						{
							OFFSET 0.0 0.0 0.0
						}
					}
				}
			}
		}
		JOINT UpperLeg_R
		{
			OFFSET -2.19251 6.46944 0.0
			CHANNELS 6 Xposition Yposition Zposition Zrotation Xrotation Yrotation 
			JOINT LowerLeg_R
			{
				OFFSET -39.0811 -0.00228153 -0.0401928
				CHANNELS 6 Xposition Yposition Zposition Zrotation Xrotation Yrotation 
				JOINT Foot_R
				{
					OFFSET -40.9854 0.0 0.0
					CHANNELS 6 Xposition Yposition Zposition Zrotation Xrotation Yrotation 
					JOINT Toes_R
					{
						OFFSET -11.7543 0.0 0.0
						CHANNELS 6 Xposition Yposition Zposition Zrotation Xrotation Yrotation 
						End Site
						{
							OFFSET 0.0 0.0 0.0
						}
					}
				}
			}
		}
	}
}
MOTION
Frames:	4
Frame Time:	0.0333333
0.000000 0.000000 0.000000 0.000000 0.000000 -0.000000 -3.576320 91.906700 1.586940 84.062900 -0.598263 1.478880 15.735700 0.000005 -0.000001 108.994000 88.519300 -106.727000 8.984550 -0.406207 -0.000000 -4.976160 0.710974 4.567880 16.377300 -0.000001 -0.000001 10.964200 -0.131248 -11.836000 6.456720 -0.000001 -0.000000 7.525110 -5.991030 -19.804000 12.994200 -0.242716 4.980390 -92.745200 7.349220 -69.451600 5.348090 -0.000007 -0.000001 -73.113000 4.666430 -7.844960 24.328600 0.000019 0.000005 43.191800 -45.032000 -127.003000 22.291600 -0.000001 0.000005 44.851500 4.947200 8.422390 12.994500 -0.242716 -4.980390 88.664500 4.108530 -71.975900 -5.348130 -0.000001 -0.000004 -72.680500 31.940000 -1.686340 -24.328900 0.000322 -0.000009 2.807080 8.927160 -17.541200 -22.291500 -0.000108 -0.000004 -0.372261 5.224900 2.086950 -2.192480 -6.469440 -0.000000 -171.667000 2.318190 -4.379320 39.081100 -0.000007 -0.000012 0.261189 -0.508437 27.190400 40.985400 -0.000006 -0.000013 -1.965820 6.727200 -76.320700 11.754300 -0.000000 0.000003 0.000380 0.160963 -10.048500 -2.192510 6.469440 -0.000001 -170.140000 6.213010 -177.252000 -39.081100 -0.002282 -0.040193 0.044353 -0.160465 14.340300 -40.985400 0.000008 0.000006 1.915850 3.265880 -70.764100 -11.754300 -0.000006 -0.000006 -0.012523 0.289280 -4.815160
0.000000 0.000000 0.000000 0.000000 0.000000 -0.000000 -3.542930 91.914200 1.583410 84.087100 -0.583528 1.495970 15.735700 0.000005 -0.000001 108.951000 88.519800 -106.678000 8.984550 -0.406207 -0.000000 -4.976200 0.707885 4.581280 16.377300 -0.000001 -0.000001 10.929600 -0.149289 -11.780500 6.456720 -0.000001 -0.000000 7.496990 -5.950500 -19.763200 12.994200 -0.242716 4.980390 -92.728200 7.299810 -69.442700 5.348090 -0.000007 -0.000001 -73.112300 4.533670 -7.896490 24.328600 0.000019 0.000005 43.069200 -44.916700 -127.066000 22.291600 -0.000001 0.000005 44.762800 4.944800 8.471630 12.994500 -0.242716 -4.980390 88.676300 4.082520 -72.017800 -5.348130 -0.000001 -0.000004 -72.774900 31.896100 -1.606260 -24.328900 0.000322 -0.000009 2.783790 8.867640 -17.513100 -22.291500 -0.000108 -0.000004 -0.444249 5.225290 2.077050 -2.192480 -6.469440 -0.000000 -171.707000 2.308870 -4.358900 39.081100 -0.000007 -0.000012 0.256058 -0.499243 27.153300 40.985400 -0.000006 -0.000013 -1.986990 6.720550 -76.263400 11.754300 -0.000000 0.000003 0.000397 0.160645 -10.061500 -2.192510 6.469440 -0.000001 -170.191000 6.238340 -177.230000 -39.081100 -0.002282 -0.040193 0.043944 -0.159026 14.326000 -40.985400 0.000008 0.000006 1.894920 3.266870 -70.773000 -11.754300 -0.000006 -0.000006 -0.012761 0.290890 -4.749150
0.000000 0.000000 0.000000 0.000000 0.000000 -0.000000 -3.532890 91.921700 1.569580 84.097000 -0.555200 1.522500 15.735700 0.000005 -0.000001 108.829000 88.517000 -106.540000 8.984550 -0.406207 -0.000000 -4.968850 0.702158 4.611270 16.377300 -0.000001 -0.000001 10.939200 -0.163174 -11.720700 6.456720 -0.000001 -0.000000 7.443550 -5.912600 -19.737400 12.994200 -0.242716 4.980390 -92.712200 7.268880 -69.473700 5.348090 -0.000007 -0.000001 -73.110700 4.476440 -7.842660 24.328600 0.000019 0.000005 43.162900 -44.914800 -126.974000 22.291600 -0.000001 0.000005 44.760400 4.932370 8.725460 12.994500 -0.242716 -4.980390 88.695600 4.032840 -72.059600 -5.348130 -0.000001 -0.000004 -72.862300 31.854100 -1.541180 -24.328900 0.000322 -0.000009 2.825180 8.999780 -17.514900 -22.291500 -0.000108 -0.000004 -0.355263 5.225170 2.080230 -2.192480 -6.469440 -0.000000 -171.724000 2.309850 -4.344830 39.081100 -0.000007 -0.000012 0.257569 -0.502513 27.138400 40.985400 -0.000006 -0.000013 -2.003200 6.756510 -76.270900 11.754300 -0.000000 0.000003 0.000243 0.163435 -9.948180 -2.192510 6.469440 -0.000001 -170.211000 6.193270 -177.222000 -39.081100 -0.002282 -0.040193 0.042481 -0.153267 14.328900 -40.985400 0.000008 0.000006 1.787950 3.220190 -70.744300 -11.754300 -0.000006 -0.000006 -0.012687 0.290393 -4.769550
0.000000 0.000000 0.000000 0.000000 0.000000 -0.000000 -3.521110 91.924100 1.540500 84.110200 -0.526754 1.508860 15.735700 0.000005 -0.000001 108.864000 88.523900 -106.562000 8.984550 -0.406207 -0.000000 -4.982450 0.697611 4.638740 16.377300 -0.000001 -0.000001 10.965500 -0.130580 -11.668200 6.456720 -0.000001 -0.000000 7.440210 -5.894240 -19.647100 12.994200 -0.242716 4.980390 -92.712800 7.274400 -69.484000 5.348090 -0.000007 -0.000001 -73.090500 4.279580 -7.903510 24.328600 0.000019 0.000005 43.077500 -44.713000 -126.959000 22.291600 -0.000001 0.000005 44.875400 4.927820 8.818140 12.994500 -0.242716 -4.980390 88.714900 3.984830 -72.108800 -5.348130 -0.000001 -0.000004 -72.924000 31.887300 -1.527000 -24.328900 0.000322 -0.000009 2.814580 8.985730 -17.478500 -22.291500 -0.000108 -0.000004 -0.314969 5.224280 2.102990 -2.192480 -6.469440 -0.000000 -171.752000 2.359280 -4.381780 39.081100 -0.000007 -0.000012 0.258217 -0.503766 27.138900 40.985400 -0.000006 -0.000013 -2.005140 6.740590 -76.234100 11.754300 -0.000000 0.000003 0.000253 0.163244 -9.955940 -2.192510 6.469440 -0.000001 -170.236000 6.249890 -177.263000 -39.081100 -0.002282 -0.040193 0.043086 -0.155396 14.350200 -40.985400 0.000008 0.000006 1.811870 3.280570 -70.737000 -11.754300 -0.000006 -0.000006 -0.012543 0.289416 -4.809560
